<svg xmlns="http://www.w3.org/2000/svg" xmlns:xlink="http://www.w3.org/1999/xlink" width="500" zoomAndPan="magnify" viewBox="0 0 375 374.999991" height="500" preserveAspectRatio="xMidYMid meet" version="1.0"><defs><g/><clipPath id="4a9f58f937"><path d="M 113.167969 86.4375 L 261.667969 86.4375 L 261.667969 311.4375 L 113.167969 311.4375 Z M 113.167969 86.4375 " clip-rule="nonzero"/></clipPath><clipPath id="72758411d0"><path d="M 92 220.394531 L 166 220.394531 L 166 295.394531 L 92 295.394531 Z M 92 220.394531 " clip-rule="nonzero"/></clipPath><clipPath id="094c36ebd9"><path d="M 222.628906 184.121094 L 274.167969 184.121094 L 274.167969 286.871094 L 222.628906 286.871094 Z M 222.628906 184.121094 " clip-rule="nonzero"/></clipPath></defs><g clip-path="url(#4a9f58f937)"><path fill="#434336" d="M 113.960938 182.183594 C 114.035156 179.765625 114.109375 177.351562 114.183594 174.933594 C 114.453125 170.839844 114.898438 166.746094 114.945312 162.648438 C 115.007812 157.085938 114.761719 151.519531 114.648438 145.957031 C 114.625 145.464844 114.601562 144.976562 114.578125 144.488281 C 114.953125 142.546875 115.328125 140.605469 115.707031 138.664062 C 115.988281 137.996094 116.269531 137.332031 116.550781 136.664062 C 117.351562 135.03125 118.15625 133.398438 118.957031 131.761719 C 119.277344 131.105469 119.59375 130.453125 119.914062 129.800781 L 119.917969 129.792969 C 120.074219 129.472656 120.230469 129.15625 120.386719 128.835938 C 121.515625 126.183594 122.648438 123.53125 123.777344 120.878906 C 125.273438 117.351562 126.769531 113.824219 128.265625 110.296875 C 128.394531 109.972656 128.523438 109.648438 128.652344 109.324219 C 128.964844 108.652344 129.28125 107.980469 129.597656 107.304688 L 129.59375 107.308594 C 129.945312 106.511719 130.296875 105.714844 130.644531 104.917969 L 130.621094 104.925781 C 130.945312 104.085938 131.265625 103.25 131.589844 102.410156 C 131.882812 101.71875 132.175781 101.027344 132.472656 100.332031 C 132.796875 99.71875 133.121094 99.101562 133.445312 98.488281 L 133.445312 98.484375 C 134.417969 96.695312 135.386719 94.902344 136.355469 93.113281 C 137.308594 91.3125 138.261719 89.511719 139.21875 87.707031 L 139.234375 87.699219 C 140.367188 87.550781 141.5 87.402344 142.632812 87.253906 C 143.277344 87.214844 143.921875 87.179688 144.570312 87.140625 C 149.078125 86.964844 153.582031 86.789062 158.089844 86.613281 C 158.40625 86.613281 158.71875 86.617188 159.03125 86.617188 L 167.75 86.574219 C 169.199219 86.582031 170.644531 86.585938 172.09375 86.589844 L 172.558594 86.605469 C 172.886719 86.605469 173.21875 86.605469 173.546875 86.605469 C 194.300781 86.800781 215.058594 86.992188 235.8125 87.183594 L 236.785156 87.253906 C 237.09375 87.433594 237.398438 87.613281 237.707031 87.792969 L 237.6875 87.773438 C 238.007812 88.273438 238.328125 88.773438 238.644531 89.273438 L 238.628906 89.261719 C 238.960938 89.933594 239.296875 90.605469 239.632812 91.273438 C 239.613281 91.414062 239.648438 91.535156 239.738281 91.644531 C 239.855469 91.863281 239.976562 92.085938 240.097656 92.304688 C 240.074219 92.433594 240.113281 92.539062 240.207031 92.625 C 240.355469 92.949219 240.503906 93.273438 240.652344 93.597656 L 240.660156 93.59375 C 241.289062 94.914062 241.921875 96.230469 242.554688 97.550781 L 242.542969 97.539062 C 242.867188 98.214844 243.1875 98.886719 243.511719 99.5625 C 243.984375 100.523438 244.457031 101.480469 244.929688 102.441406 C 247.351562 107.851562 249.769531 113.261719 252.191406 118.671875 C 252.171875 118.820312 252.210938 118.945312 252.3125 119.054688 C 252.425781 119.246094 252.539062 119.441406 252.652344 119.632812 L 252.613281 119.625 C 253.269531 120.960938 253.925781 122.296875 254.582031 123.636719 C 255.261719 125.53125 255.941406 127.421875 256.621094 129.316406 C 257.738281 132.082031 258.859375 134.847656 259.980469 137.613281 C 260.285156 138.28125 260.585938 138.949219 260.890625 139.617188 C 260.957031 143.53125 261.023438 147.445312 261.089844 151.359375 C 261.03125 154.445312 260.976562 157.53125 260.921875 160.617188 C 260.78125 163.070312 260.640625 165.523438 260.5 167.976562 C 260.480469 168.464844 260.457031 168.953125 260.4375 169.441406 C 260.316406 171.234375 260.199219 173.027344 260.082031 174.820312 C 260.082031 185.109375 260.085938 195.394531 260.089844 205.683594 C 260.195312 207.316406 260.304688 208.953125 260.410156 210.589844 L 260.402344 210.601562 C 260.570312 213.214844 260.738281 215.828125 260.910156 218.441406 C 260.929688 219.074219 260.949219 219.707031 260.96875 220.339844 C 260.980469 220.835938 260.988281 221.332031 260.996094 221.824219 C 261.023438 224.753906 261.046875 227.679688 261.074219 230.605469 C 261.035156 231.171875 260.953125 231.738281 260.960938 232.300781 C 261.121094 245.382812 261.285156 258.464844 261.457031 271.546875 C 261.515625 276.015625 261.589844 280.480469 261.65625 284.949219 C 261.585938 290.859375 261.539062 296.769531 261.421875 302.679688 C 261.386719 304.277344 261.144531 305.867188 261 307.464844 C 260.914062 307.582031 260.882812 307.714844 260.894531 307.859375 C 260.058594 308.195312 259.222656 308.53125 258.382812 308.867188 C 256.332031 308.9375 254.285156 309.007812 252.234375 309.078125 C 252.078125 309.007812 251.917969 309.007812 251.765625 309.078125 C 251.429688 309.089844 251.09375 309.101562 250.761719 309.109375 C 250.136719 309.105469 249.511719 309.101562 248.886719 309.097656 C 248.546875 309.09375 248.207031 309.089844 247.871094 309.085938 C 246.761719 309.097656 245.65625 309.109375 244.546875 309.121094 C 244.050781 309.109375 243.554688 309.101562 243.058594 309.09375 C 242.902344 309.097656 242.75 309.101562 242.59375 309.105469 C 242.257812 309.105469 241.917969 309.109375 241.582031 309.109375 C 239.511719 309.101562 237.4375 309.09375 235.367188 309.085938 C 235.027344 309.085938 234.6875 309.085938 234.347656 309.085938 L 231.023438 309.105469 C 230.199219 309.101562 229.375 309.097656 228.550781 309.09375 C 227.761719 309.085938 226.972656 309.078125 226.183594 309.074219 C 225.210938 309.066406 224.238281 309.0625 223.265625 309.058594 C 223.105469 309.058594 222.945312 309.054688 222.785156 309.054688 C 217.3125 309.058594 211.835938 309.0625 206.359375 309.070312 C 206.203125 309.070312 206.046875 309.074219 205.890625 309.078125 C 205.5625 309.085938 205.234375 309.097656 204.90625 309.105469 C 204.753906 309.027344 204.601562 309.027344 204.445312 309.101562 C 203.953125 309.09375 203.457031 309.089844 202.964844 309.085938 L 196.769531 309.167969 C 196.40625 309.171875 196.042969 309.171875 195.683594 309.175781 C 192.816406 309.253906 189.945312 309.335938 187.078125 309.414062 C 185.617188 309.445312 184.15625 309.476562 182.695312 309.511719 C 179.785156 309.632812 176.875 309.757812 173.964844 309.878906 C 171.730469 309.914062 169.496094 309.953125 167.261719 309.988281 C 165.484375 310.109375 163.707031 310.226562 161.929688 310.347656 C 161.128906 310.378906 160.332031 310.414062 159.535156 310.445312 C 156.144531 310.578125 152.757812 310.710938 149.371094 310.84375 C 147.609375 310.878906 145.84375 310.910156 144.082031 310.941406 C 143.285156 310.917969 142.484375 310.855469 141.6875 310.871094 C 133.617188 311.023438 125.546875 311.234375 117.472656 311.296875 C 116.390625 311.304688 115.304688 310.589844 114.21875 310.210938 C 114.167969 309.621094 114.117188 309.035156 114.066406 308.445312 C 113.910156 306.769531 113.621094 305.097656 113.617188 303.421875 C 113.578125 285.957031 113.601562 268.492188 113.5625 251.027344 C 113.558594 248.609375 113.328125 246.1875 113.203125 243.765625 C 113.191406 231.066406 113.179688 218.363281 113.167969 205.660156 C 113.433594 198.3125 113.703125 190.96875 113.96875 183.621094 C 113.972656 183.300781 113.976562 182.980469 113.976562 182.660156 C 114.035156 182.5 114.027344 182.339844 113.960938 182.183594 Z M 139.71875 94.074219 C 153.679688 94.242188 167.640625 94.417969 181.601562 94.570312 C 185.609375 94.613281 186.03125 94.25 187.1875 90.074219 C 185.125 90.074219 183.121094 90.066406 181.117188 90.074219 C 168.839844 90.132812 156.566406 90.144531 144.292969 90.277344 C 140.714844 90.316406 140.386719 90.753906 139.75 94.105469 C 139.671875 94.15625 139.59375 94.210938 139.519531 94.261719 C 139.566406 94.257812 139.632812 94.277344 139.652344 94.253906 C 139.691406 94.207031 139.699219 94.136719 139.71875 94.074219 Z M 257.910156 143.074219 C 257.011719 143.074219 256.230469 143.066406 255.445312 143.074219 C 242.667969 143.21875 229.890625 143.34375 217.113281 143.542969 C 215.375 143.570312 214.265625 143.113281 213.542969 141.390625 C 212.695312 139.378906 211.535156 137.507812 210.539062 135.558594 C 203.628906 122.078125 195.640625 109.15625 190.042969 94.992188 C 189.863281 94.535156 189.535156 94.144531 189.199219 93.597656 C 188.605469 94.5625 188.09375 95.296875 187.683594 96.085938 C 179.808594 111.089844 171.910156 126.078125 164.121094 141.128906 C 163.054688 143.195312 161.878906 144.296875 159.476562 144.046875 C 156.765625 143.761719 154.027344 143.65625 151.296875 143.617188 C 141.171875 143.476562 131.042969 143.398438 120.917969 143.300781 C 119.898438 143.289062 118.882812 143.296875 117.710938 143.296875 C 117.710938 144.4375 117.710938 145.316406 117.710938 146.195312 C 117.71875 152.957031 117.980469 159.730469 117.683594 166.480469 C 116.503906 193.25 115.804688 220.015625 116.332031 246.824219 C 116.707031 265.882812 116.46875 284.953125 116.5625 304.015625 C 116.570312 305.46875 117.019531 306.921875 117.316406 308.683594 C 135.089844 308.097656 152.5 307.519531 170.140625 306.9375 C 170.140625 305.871094 170.140625 305.078125 170.140625 304.289062 C 170.117188 293.300781 170.042969 282.308594 170.132812 271.324219 C 170.144531 270.015625 170.726562 268.398438 171.605469 267.464844 C 175.644531 263.160156 179.910156 259.074219 184.039062 254.855469 C 185.628906 253.230469 187.214844 253.136719 188.953125 254.480469 C 193.863281 258.277344 198.738281 262.121094 203.679688 265.875 C 205.324219 267.125 205.980469 268.695312 205.964844 270.707031 C 205.925781 275.347656 205.886719 279.988281 205.921875 284.628906 C 205.972656 291.6875 206.089844 298.746094 206.179688 305.824219 C 206.964844 305.910156 207.273438 305.972656 207.582031 305.972656 C 223.59375 305.960938 239.601562 305.878906 255.613281 305.988281 C 258.214844 306.007812 258.582031 305.070312 258.554688 302.75 C 258.371094 287.515625 258.355469 272.28125 258.234375 257.046875 C 258.136719 244.421875 258.425781 231.769531 257.726562 219.179688 C 256.636719 199.457031 256.601562 179.785156 257.855469 160.082031 C 258.210938 154.507812 257.910156 148.886719 257.910156 143.074219 Z M 202.980469 305.941406 C 202.980469 302.164062 202.976562 298.675781 202.980469 295.183594 C 202.992188 287.203125 203.0625 279.21875 202.960938 271.234375 C 202.949219 270.195312 202.34375 268.832031 201.558594 268.183594 C 197.277344 264.640625 192.820312 261.3125 188.496094 257.820312 C 187.1875 256.765625 186.226562 256.738281 185.042969 257.964844 C 181.394531 261.75 177.640625 265.425781 174.039062 269.253906 C 173.417969 269.914062 173.074219 271.113281 173.070312 272.070312 C 173.019531 281.753906 173.0625 291.4375 173.078125 301.121094 C 173.078125 302.894531 173.078125 304.664062 173.078125 306.679688 C 183.308594 306.429688 193.230469 306.183594 202.980469 305.941406 Z M 163.878906 134.441406 C 155.253906 133.746094 146.9375 133.007812 138.605469 132.429688 C 133.800781 132.097656 128.976562 131.992188 124.160156 131.871094 C 123.433594 131.851562 122.304688 132.082031 122.035156 132.574219 C 120.746094 134.949219 119.691406 137.457031 118.167969 140.742188 C 124.753906 140.742188 130.683594 140.714844 136.613281 140.75 C 144.085938 140.800781 151.554688 140.929688 159.027344 140.949219 C 159.785156 140.953125 160.925781 140.679688 161.238281 140.140625 C 162.246094 138.417969 162.953125 136.511719 163.878906 134.441406 Z M 207.195312 122.730469 C 208.269531 124.824219 209.269531 126.667969 210.160156 128.5625 C 210.753906 129.824219 211.558594 130.308594 212.992188 130.21875 C 216.355469 130.011719 219.738281 129.847656 223.101562 129.941406 C 232.414062 130.199219 241.722656 130.601562 251.035156 130.9375 C 251.867188 130.96875 252.707031 130.941406 253.925781 130.941406 C 252.683594 127.875 251.632812 125.285156 250.59375 122.730469 Z M 173.425781 115.738281 C 167.699219 115.261719 162.351562 114.761719 156.996094 114.378906 C 148.757812 113.789062 140.511719 113.257812 132.269531 112.777344 C 131.621094 112.738281 130.570312 113.125 130.335938 113.621094 C 129.304688 115.785156 128.507812 118.0625 127.4375 120.773438 C 130.074219 120.773438 132.3125 120.710938 134.546875 120.785156 C 145.9375 121.15625 157.328125 121.578125 168.722656 121.921875 C 169.316406 121.941406 170.175781 121.570312 170.476562 121.09375 C 171.511719 119.472656 172.355469 117.726562 173.425781 115.738281 Z M 201.734375 112.910156 C 202.636719 114.523438 203.503906 115.710938 204 117.042969 C 204.792969 119.191406 206.292969 119.578125 208.328125 119.558594 C 212.910156 119.523438 217.488281 119.726562 222.070312 119.746094 C 231.039062 119.78125 240.011719 119.757812 249.203125 119.757812 C 248.582031 118.230469 247.90625 116.773438 247.398438 115.257812 C 246.886719 113.71875 246.03125 113.230469 244.378906 113.238281 C 239.082031 113.257812 233.78125 112.960938 228.480469 112.925781 C 219.738281 112.863281 210.996094 112.910156 201.734375 112.910156 Z M 212.9375 133.542969 C 213.835938 135.300781 214.648438 137.253906 215.800781 138.976562 C 216.304688 139.734375 217.496094 140.457031 218.371094 140.453125 C 231.15625 140.394531 243.941406 140.214844 256.726562 140.054688 C 256.9375 140.050781 257.144531 139.941406 257.519531 139.832031 C 257 138.65625 256.320312 137.609375 256.066406 136.460938 C 255.511719 133.953125 253.933594 133.9375 251.820312 133.953125 C 246.355469 134 240.894531 133.621094 235.429688 133.5625 C 227.980469 133.484375 220.527344 133.542969 212.9375 133.542969 Z M 178.34375 106.558594 C 177.695312 106.5 177.316406 106.453125 176.933594 106.433594 C 170.039062 106.109375 163.148438 105.789062 156.253906 105.460938 C 149.527344 105.140625 142.796875 104.777344 136.066406 104.53125 C 135.34375 104.503906 134.296875 104.90625 133.925781 105.46875 C 133.117188 106.695312 132.652344 108.148438 131.996094 109.617188 C 137.863281 110 143.382812 110.328125 148.902344 110.738281 C 155.457031 111.226562 162.011719 111.792969 168.570312 112.304688 C 176.570312 112.925781 174.429688 113.921875 178.34375 106.558594 Z M 123.886719 128.742188 C 124.472656 128.78125 124.851562 128.8125 125.230469 128.832031 C 132.679688 129.273438 140.128906 129.691406 147.574219 130.167969 C 152.933594 130.507812 158.285156 130.960938 163.644531 131.285156 C 164.34375 131.328125 165.441406 131.132812 165.722656 130.660156 C 166.769531 128.910156 167.546875 126.996094 168.71875 124.53125 C 164.394531 124.53125 160.625 124.621094 156.863281 124.515625 C 147.316406 124.242188 137.769531 123.914062 128.226562 123.515625 C 126.601562 123.449219 125.675781 123.894531 125.214844 125.5 C 124.910156 126.5625 124.382812 127.558594 123.886719 128.742188 Z M 135.78125 101.394531 C 137.230469 101.472656 138.648438 101.558594 140.066406 101.625 C 152.894531 102.246094 165.71875 102.875 178.546875 103.457031 C 179.171875 103.484375 180.113281 103.316406 180.398438 102.890625 C 181.453125 101.304688 182.292969 99.574219 183.21875 97.894531 C 182.832031 97.691406 182.703125 97.5625 182.570312 97.5625 C 168.597656 97.417969 154.625 97.25 140.652344 97.179688 C 137.257812 97.164062 136.953125 97.566406 135.78125 101.394531 Z M 245.027344 110.164062 C 244.652344 109.304688 244.253906 108.609375 244.039062 107.859375 C 243.324219 105.34375 241.726562 104.796875 239.21875 104.808594 C 230.867188 104.847656 222.511719 104.523438 214.160156 104.414062 C 208.664062 104.339844 203.171875 104.398438 197.40625 104.398438 C 198.160156 105.910156 198.804688 107.480469 199.710938 108.882812 C 200.046875 109.402344 200.976562 109.78125 201.644531 109.792969 C 211.6875 109.957031 221.730469 110.070312 231.773438 110.160156 C 236.105469 110.199219 240.433594 110.167969 245.027344 110.167969 Z M 194.414062 96.535156 C 195.0625 100.613281 195.5 100.929688 198.980469 101.027344 C 205.886719 101.222656 212.792969 101.628906 219.699219 101.753906 C 226.742188 101.882812 233.789062 101.78125 241.066406 101.78125 C 240.726562 101.054688 240.390625 100.511719 240.207031 99.921875 C 239.496094 97.621094 238.152344 96.742188 235.625 96.796875 C 229.765625 96.925781 223.898438 96.589844 218.03125 96.546875 C 210.175781 96.492188 202.316406 96.535156 194.414062 96.535156 Z M 191.292969 90.242188 C 191.828125 92.953125 193.25 93.691406 195.746094 93.675781 C 208.9375 93.597656 222.128906 93.71875 235.324219 93.765625 C 235.90625 93.769531 236.492188 93.707031 237.074219 93.671875 C 237.21875 93.414062 237.359375 93.15625 237.5 92.894531 C 236.375 92.011719 235.261719 90.371094 234.128906 90.355469 C 219.894531 90.179688 205.660156 90.242188 191.292969 90.242188 Z M 191.292969 90.242188 " fill-opacity="1" fill-rule="nonzero"/></g><path fill="#434336" d="M 188.347656 181.613281 L 208.515625 181.613281 C 210.753906 191.675781 199.664062 203.992188 188.347656 203.777344 Z M 188.347656 181.613281 " fill-opacity="1" fill-rule="nonzero"/><path fill="#434336" d="M 188.527344 178.371094 L 188.527344 156.945312 C 199.71875 157.296875 208.144531 166.289062 208.667969 178.371094 Z M 188.527344 178.371094 " fill-opacity="1" fill-rule="nonzero"/><path fill="#434336" d="M 185 203.609375 C 174.464844 203.535156 166.601562 195.296875 164.910156 182.527344 C 171.542969 182.203125 178.152344 181.882812 185 181.550781 Z M 185 203.609375 " fill-opacity="1" fill-rule="nonzero"/><path fill="#434336" d="M 185.160156 156.628906 L 185.160156 178.480469 C 178.296875 178.808594 171.605469 179.128906 164.921875 179.453125 C 164.246094 170.394531 175.925781 157.167969 185.160156 156.628906 Z M 185.160156 156.628906 " fill-opacity="1" fill-rule="nonzero"/><g clip-path="url(#72758411d0)"><path fill="#434336" d="M 95.019531 247.78125 C 94.914062 247.609375 94.8125 247.4375 94.707031 247.265625 C 92.972656 243.898438 91.777344 240.410156 92.238281 236.542969 C 92.257812 236.386719 92.273438 236.226562 92.292969 236.066406 C 92.757812 235.335938 93.222656 234.601562 93.6875 233.871094 L 93.679688 233.878906 C 95.027344 233.703125 96.378906 233.527344 97.726562 233.351562 C 98.019531 233.523438 98.3125 233.691406 98.605469 233.863281 C 99.34375 234.65625 100.082031 235.453125 100.816406 236.246094 C 100.8125 236.371094 100.859375 236.46875 100.964844 236.539062 C 101.367188 237.339844 101.773438 238.136719 102.179688 238.9375 C 102.15625 239.054688 102.1875 239.15625 102.273438 239.238281 C 103.15625 241.957031 104.042969 244.671875 104.929688 247.386719 C 104.980469 247.664062 105.03125 247.9375 105.082031 248.214844 C 105.328125 248.851562 105.574219 249.488281 105.816406 250.128906 C 105.785156 250.257812 105.8125 250.371094 105.898438 250.472656 C 106.226562 251.378906 106.558594 252.285156 107.066406 253.667969 C 107.285156 252.230469 107.417969 251.351562 107.554688 250.46875 C 108.75 247.621094 109.949219 244.777344 111.144531 241.929688 C 114.34375 240.113281 117.027344 241.554688 116.710938 245.378906 C 116.65625 246.039062 116.710938 246.703125 116.714844 247.363281 C 116.261719 248.402344 115.808594 249.4375 115.359375 250.476562 C 115.199219 250.769531 115.042969 251.0625 114.886719 251.351562 C 114.773438 251.507812 114.65625 251.660156 114.542969 251.816406 C 114.4375 251.910156 114.390625 252.03125 114.402344 252.171875 C 114.28125 252.355469 114.160156 252.535156 114.039062 252.714844 C 113.9375 252.78125 113.894531 252.871094 113.914062 252.992188 C 112.671875 254.902344 111.371094 256.785156 110.226562 258.753906 C 109.96875 259.199219 110.082031 260.035156 110.324219 260.554688 C 111.15625 262.355469 112.125 264.09375 113.039062 265.855469 C 113.3125 266.585938 113.585938 267.320312 113.859375 268.050781 C 114.792969 270.464844 115.722656 272.875 116.65625 275.289062 C 116.621094 275.417969 116.648438 275.527344 116.738281 275.628906 C 116.886719 276.171875 117.039062 276.714844 117.3125 277.691406 C 117.851562 276.269531 118.214844 275.304688 118.582031 274.339844 L 118.5625 274.347656 C 119.441406 272.828125 120.316406 271.308594 121.195312 269.789062 C 121.984375 268.628906 123.023438 267.558594 123.484375 266.28125 C 123.894531 265.140625 123.664062 263.773438 123.714844 262.507812 C 123.011719 259.847656 122.304688 257.191406 121.601562 254.53125 C 121.597656 254.222656 121.589844 253.914062 121.585938 253.605469 C 121.625 252.796875 121.609375 251.976562 121.722656 251.175781 C 122.089844 248.558594 123.53125 246.476562 125.109375 246.480469 C 127.59375 246.480469 128.089844 248.503906 128.738281 250.3125 C 128.761719 250.375 128.835938 250.421875 128.886719 250.476562 C 128.914062 250.78125 128.945312 251.082031 128.976562 251.386719 C 128.65625 254.535156 128.335938 257.6875 128.015625 260.835938 C 127.929688 260.886719 127.839844 260.933594 127.753906 260.984375 C 127.796875 260.988281 127.863281 261.007812 127.882812 260.984375 C 127.929688 260.933594 127.953125 260.859375 127.988281 260.796875 C 129.132812 259.59375 130.28125 258.394531 131.429688 257.191406 C 131.65625 256.941406 131.882812 256.6875 132.109375 256.4375 C 132.722656 255.9375 133.335938 255.441406 133.972656 254.921875 C 133.605469 254.191406 133.3125 253.613281 133.019531 253.03125 C 132.972656 252.777344 132.925781 252.519531 132.878906 252.261719 C 132.78125 252.042969 132.6875 251.824219 132.59375 251.605469 C 132.640625 251.503906 132.613281 251.425781 132.515625 251.367188 C 132.058594 249.734375 131.601562 248.097656 131.140625 246.464844 C 131.027344 245.988281 130.914062 245.511719 130.800781 245.039062 C 130.824219 242.203125 130.851562 239.363281 130.875 236.527344 C 130.875 236.527344 130.914062 236.433594 130.914062 236.433594 C 133.570312 234.316406 135.265625 234.742188 136.511719 237.832031 C 136.648438 238.164062 136.820312 238.484375 136.972656 238.8125 C 137.015625 239.109375 137.0625 239.40625 137.105469 239.703125 C 137.21875 240.324219 137.335938 240.941406 137.449219 241.5625 C 137.484375 242.585938 137.515625 243.605469 137.550781 244.628906 C 137.375 246.921875 137.199219 249.210938 136.996094 251.871094 C 139.6875 249.464844 141.855469 247.179688 144.371094 245.371094 C 146.746094 243.660156 146.734375 241.8125 145.667969 239.542969 C 145.648438 236.59375 145.625 233.644531 145.605469 230.695312 C 146.863281 227.875 148.117188 225.054688 149.375 222.234375 C 149.617188 222.003906 149.863281 221.773438 150.109375 221.542969 C 150.726562 221.160156 151.34375 220.777344 151.960938 220.390625 L 151.949219 220.398438 C 154.808594 220.472656 155.652344 221.269531 155.613281 224.09375 C 155.59375 225.546875 155.355469 227 155.214844 228.449219 C 155.160156 228.746094 155.105469 229.042969 155.046875 229.339844 C 154.472656 230.992188 153.894531 232.644531 153.316406 234.296875 C 152.832031 235.4375 152.34375 236.578125 151.859375 237.722656 C 151.445312 238.585938 151.03125 239.449219 150.488281 240.574219 C 152.9375 239.601562 154.941406 238.808594 156.945312 238.011719 C 157.234375 237.953125 157.523438 237.894531 157.8125 237.835938 C 158.710938 237.835938 159.609375 237.832031 160.507812 237.832031 C 160.808594 237.867188 161.105469 237.90625 161.40625 237.941406 C 166.058594 239.886719 166.691406 241.503906 164.011719 244.582031 C 163.601562 244.777344 163.195312 244.976562 162.785156 245.175781 C 159.980469 245.203125 157.167969 245.351562 154.371094 245.230469 C 151.472656 245.101562 148.398438 243.972656 146.445312 247.300781 C 146.152344 247.578125 145.859375 247.855469 145.570312 248.132812 C 144.378906 249.082031 143.191406 250.03125 142.003906 250.980469 C 147.089844 250.546875 152.027344 249.230469 156.46875 252.691406 L 156.480469 252.710938 C 156.613281 252.890625 156.742188 253.066406 156.875 253.246094 C 156.863281 253.390625 156.902344 253.515625 156.992188 253.628906 C 157.234375 256.628906 154.792969 257.128906 152.816406 258.066406 C 150.566406 258.085938 148.3125 258.105469 146.0625 258.125 C 142.945312 257.484375 139.828125 256.847656 136.445312 256.15625 C 134.179688 258.542969 131.777344 261.078125 129.375 263.609375 C 129.464844 263.753906 129.558594 263.894531 129.648438 264.039062 C 131.5 263.558594 133.347656 263.074219 135.195312 262.59375 C 138.097656 262.765625 141.019531 262.246094 143.863281 263.660156 C 145.28125 264.367188 146.230469 265.238281 145.863281 266.523438 C 145.527344 267.695312 144.351562 268.652344 143.480469 269.640625 C 143.277344 269.871094 142.785156 269.84375 142.429688 269.9375 C 142.238281 270.019531 142.050781 270.105469 141.863281 270.191406 L 141.691406 270.160156 L 141.539062 270.246094 C 140.035156 270.242188 138.53125 270.234375 137.03125 270.230469 C 136.125 270.085938 135.21875 269.941406 134.3125 269.792969 C 132.511719 269.375 130.578125 269.234375 128.941406 268.464844 C 126.683594 267.40625 125.484375 268.152344 124.53125 270.097656 C 124.207031 270.757812 123.816406 271.386719 123.457031 272.03125 L 123.464844 272.019531 C 123.289062 272.316406 123.117188 272.609375 122.945312 272.90625 L 122.96875 272.875 C 120.167969 276.683594 118.605469 280.941406 118.113281 285.148438 C 121.230469 283.355469 124.402344 281.53125 127.578125 279.707031 L 127.566406 279.71875 C 128.679688 279.742188 129.820312 279.628906 130.90625 279.8125 C 133.550781 280.257812 134.394531 281.441406 134.191406 284.117188 C 133.269531 285.96875 131.863281 287.199219 129.761719 287.539062 C 127.8125 287.910156 125.863281 288.28125 123.910156 288.648438 L 123.917969 288.644531 C 122.390625 288.761719 120.792969 288.644531 119.34375 289.042969 C 116.816406 289.746094 117.105469 292.101562 116.816406 294.058594 C 116.773438 294.339844 116.726562 294.621094 116.683594 294.902344 C 116.53125 295.066406 116.378906 295.226562 116.226562 295.390625 L 116.242188 295.378906 C 115.796875 295.371094 115.355469 295.359375 114.910156 295.351562 C 114.78125 295.207031 114.652344 295.0625 114.523438 294.917969 C 114.460938 293.878906 114.398438 292.839844 114.335938 291.800781 C 114.378906 291.207031 114.425781 290.609375 114.472656 290.015625 C 114.59375 288.515625 114.71875 287.015625 114.839844 285.511719 C 114.835938 285.214844 114.832031 284.917969 114.828125 284.621094 C 114.714844 282.820312 114.601562 281.015625 114.484375 279.214844 C 114.441406 278.914062 114.398438 278.613281 114.355469 278.316406 C 114.257812 277.960938 114.160156 277.605469 114.0625 277.253906 C 114.097656 277.140625 114.070312 277.050781 113.976562 276.980469 C 113.367188 275.085938 112.753906 273.191406 111.949219 270.683594 C 111.210938 272.28125 110.753906 273.257812 110.300781 274.234375 L 110.320312 274.222656 C 109.773438 275.144531 109.222656 276.070312 108.675781 276.992188 C 108.566406 277.085938 108.519531 277.203125 108.53125 277.34375 C 108.039062 278.101562 107.550781 278.855469 107.0625 279.613281 C 106.949219 279.753906 106.832031 279.894531 106.71875 280.035156 C 103.28125 282.757812 101.535156 282.539062 100.074219 279.195312 C 100.078125 278.917969 100.082031 278.640625 100.085938 278.363281 C 100.800781 276.703125 101.519531 275.042969 102.238281 273.386719 L 102.246094 273.386719 C 103.375 272.410156 104.507812 271.429688 105.800781 270.3125 C 104.445312 270.144531 103.351562 270.011719 102.257812 269.875 C 101.019531 269.550781 99.78125 269.226562 98.546875 268.902344 C 97.566406 268.152344 96.558594 267.4375 95.617188 266.644531 C 94.332031 265.5625 93.558594 264.300781 94.566406 262.609375 L 94.570312 262.605469 C 94.730469 262.464844 94.894531 262.320312 95.058594 262.175781 L 95.035156 262.195312 C 96.839844 262.152344 98.640625 262.109375 100.445312 262.066406 C 100.738281 262.109375 101.035156 262.15625 101.328125 262.199219 C 101.636719 262.308594 101.941406 262.417969 102.25 262.523438 C 102.398438 262.550781 102.550781 262.578125 102.699219 262.601562 C 103.453125 262.890625 104.203125 263.179688 104.957031 263.46875 C 105.039062 263.558594 105.140625 263.589844 105.261719 263.566406 C 106.65625 264.285156 108.050781 265.003906 109.445312 265.726562 C 109.570312 265.578125 109.695312 265.433594 109.820312 265.289062 C 108.652344 263.410156 107.914062 260.894531 106.234375 259.773438 C 101.492188 256.609375 98.058594 252.421875 95.019531 247.78125 Z M 95.019531 247.78125 " fill-opacity="1" fill-rule="nonzero"/></g><g clip-path="url(#094c36ebd9)"><path fill="#434336" d="M 223.257812 215.144531 C 223.9375 215.515625 224.363281 215.023438 224.84375 214.652344 C 225.320312 214.289062 225.851562 214 226.359375 213.675781 C 227.886719 212.710938 229.683594 212.59375 231.347656 212.070312 C 233.9375 211.257812 236.496094 210.296875 237.714844 207.539062 C 238.472656 205.816406 238.617188 205.695312 240.007812 206.917969 C 243.535156 210.007812 246.25 213.753906 248.5625 217.824219 C 252.722656 225.152344 254.910156 233.207031 257.148438 241.246094 C 257.414062 242.195312 257.835938 243.140625 257.71875 244.359375 C 255.402344 241.355469 252.613281 239.230469 249.328125 237.839844 C 246.914062 236.816406 244.496094 235.648438 241.75 235.898438 C 240.308594 236.027344 239.734375 236.949219 240.570312 237.941406 C 242.53125 240.257812 244.464844 242.628906 246.660156 244.707031 C 249.589844 247.484375 253.402344 247.375 257.09375 247.238281 C 258.207031 247.195312 258.578125 247.375 258.773438 248.511719 C 259.773438 254.351562 260.292969 260.230469 260.265625 266.148438 C 260.257812 267.441406 260.609375 268.804688 260.023438 270.121094 C 258.910156 268.0625 257.914062 266.085938 256.796875 264.179688 C 254.507812 260.277344 250.65625 258.679688 246.636719 257.367188 C 246.132812 257.207031 245.695312 257.28125 245.3125 257.746094 C 244.886719 258.269531 245.148438 258.71875 245.410156 259.109375 C 246.675781 261.003906 247.511719 263.121094 248.527344 265.140625 C 250.730469 269.53125 253.90625 272.542969 259.050781 272.777344 C 260.050781 272.820312 260.199219 273.324219 260.160156 274.148438 C 259.984375 277.578125 259.824219 281.007812 259.683594 284.4375 C 259.652344 285.257812 259.015625 286.585938 260.164062 286.71875 C 261.351562 286.851562 261.207031 285.390625 261.3125 284.519531 C 262.402344 275.648438 262.550781 266.746094 261.957031 257.835938 C 261.871094 256.546875 262.34375 256.214844 263.269531 255.855469 C 272.539062 252.238281 273.800781 247.015625 274.292969 238.703125 C 274.371094 237.402344 273.523438 236.890625 272.527344 237.613281 C 268.953125 240.195312 265.242188 242.640625 262.734375 246.417969 C 262.121094 247.335938 261.609375 248.320312 260.953125 249.441406 C 259.597656 241.179688 257.328125 233.398438 254.398438 225.832031 C 253.484375 223.46875 253.582031 221.878906 255.246094 219.894531 C 257.605469 217.078125 259.101562 213.730469 258.90625 209.867188 C 258.75 206.777344 257.226562 204.183594 255.894531 201.523438 C 255.558594 200.851562 255.300781 199.957031 254.316406 200.109375 C 253.34375 200.257812 253.332031 201.148438 253.214844 201.921875 C 252.476562 206.777344 250.871094 211.445312 250.285156 216.6875 C 248.074219 212.816406 245.941406 209.144531 242.699219 206.769531 C 239.585938 204.492188 239.875 202.175781 240.914062 199.292969 C 240.953125 199.191406 240.996094 199.085938 241.035156 198.984375 C 243.042969 193.667969 242.914062 188.875 237.730469 185.320312 C 237.597656 185.226562 237.507812 185.078125 237.390625 184.957031 C 237 184.5625 236.632812 184.144531 235.972656 184.410156 C 235.335938 184.667969 235.242188 185.203125 235.257812 185.769531 C 235.300781 187.214844 235.175781 188.644531 235.082031 190.082031 C 234.785156 194.441406 234.460938 198.820312 236.378906 202.953125 C 236.726562 203.699219 236.53125 203.898438 235.734375 203.898438 C 233.699219 203.898438 231.691406 204.210938 229.742188 204.792969 C 225.339844 206.113281 223.003906 209.042969 222.695312 213.550781 C 222.652344 214.183594 222.613281 214.792969 223.257812 215.144531 Z M 223.257812 215.144531 " fill-opacity="1" fill-rule="nonzero"/></g><g fill="#000000" fill-opacity="1"><g transform="translate(122.66137, 59.63125)"><g><path d="M 13.28125 -27.09375 C 13.863281 -27.070312 14.160156 -26.804688 14.171875 -26.296875 C 14.171875 -25.140625 14.117188 -23.992188 14.015625 -22.859375 C 13.609375 -18.117188 13.3125 -13.351562 13.125 -8.5625 C 13.019531 -6.4375 13.046875 -4.300781 13.203125 -2.15625 C 13.222656 -2.007812 13.234375 -1.863281 13.234375 -1.71875 C 13.242188 -1.300781 13.203125 -1.015625 13.109375 -0.859375 C 13.015625 -0.703125 12.832031 -0.625 12.5625 -0.625 C 12.25 -0.59375 12.015625 -0.644531 11.859375 -0.78125 C 11.703125 -0.925781 11.601562 -1.203125 11.5625 -1.609375 C 11.382812 -2.742188 11.242188 -3.875 11.140625 -5 C 11.015625 -6.738281 11 -8.472656 11.09375 -10.203125 C 11.101562 -10.359375 11.109375 -10.519531 11.109375 -10.6875 C 11.160156 -11.332031 11.117188 -11.71875 10.984375 -11.84375 C 10.847656 -11.96875 10.460938 -12.023438 9.828125 -12.015625 C 9.265625 -12.015625 8.695312 -12.015625 8.125 -12.015625 C 7.15625 -12.015625 6.175781 -12.003906 5.1875 -11.984375 C 4.5 -11.960938 3.828125 -11.929688 3.171875 -11.890625 C 2.941406 -11.859375 2.726562 -11.835938 2.53125 -11.828125 C 2.21875 -11.804688 1.914062 -11.800781 1.625 -11.8125 C 1.332031 -11.820312 1.039062 -11.878906 0.75 -11.984375 C 0.25 -12.222656 0.117188 -12.59375 0.359375 -13.09375 C 0.578125 -13.445312 0.835938 -13.796875 1.140625 -14.140625 C 1.140625 -14.148438 1.140625 -14.15625 1.140625 -14.15625 C 2.148438 -15.445312 3.144531 -16.753906 4.125 -18.078125 C 5.113281 -19.398438 6.0625 -20.742188 6.96875 -22.109375 C 7.78125 -23.367188 8.53125 -24.65625 9.21875 -25.96875 C 9.539062 -26.59375 10.035156 -26.816406 10.703125 -26.640625 C 10.859375 -26.609375 10.976562 -26.523438 11.0625 -26.390625 C 11.144531 -26.265625 11.179688 -26.125 11.171875 -25.96875 C 11.046875 -25.425781 10.835938 -24.914062 10.546875 -24.4375 C 10.515625 -24.40625 10.488281 -24.367188 10.46875 -24.328125 C 9.351562 -22.265625 8.09375 -20.300781 6.6875 -18.4375 C 5.9375 -17.445312 5.179688 -16.453125 4.421875 -15.453125 C 4.035156 -14.929688 3.640625 -14.414062 3.234375 -13.90625 C 3.171875 -13.800781 3.078125 -13.664062 2.953125 -13.5 C 2.890625 -13.394531 2.804688 -13.265625 2.703125 -13.109375 C 3.472656 -13.109375 4.207031 -13.109375 4.90625 -13.109375 C 6.507812 -13.128906 8.054688 -13.128906 9.546875 -13.109375 C 9.597656 -13.109375 9.648438 -13.109375 9.703125 -13.109375 C 10.179688 -13.078125 10.53125 -13.085938 10.75 -13.140625 C 10.976562 -13.191406 11.125 -13.332031 11.1875 -13.5625 C 11.25 -13.789062 11.296875 -14.175781 11.328125 -14.71875 C 11.410156 -15.738281 11.492188 -16.765625 11.578125 -17.796875 C 11.734375 -19.597656 11.890625 -21.398438 12.046875 -23.203125 C 12.128906 -24.234375 12.238281 -25.269531 12.375 -26.3125 C 12.445312 -26.84375 12.75 -27.101562 13.28125 -27.09375 Z M 13.28125 -27.09375 "/></g></g></g><g fill="#000000" fill-opacity="1"><g transform="translate(145.246615, 59.63125)"><g/></g></g><g fill="#000000" fill-opacity="1"><g transform="translate(158.568216, 59.63125)"><g><path d="M 28.203125 -34.875 C 29.953125 -33.382812 30.363281 -31.472656 29.4375 -29.140625 C 28.507812 -26.816406 26.65625 -24.203125 23.875 -21.296875 C 21.09375 -18.398438 16 -14.976562 8.59375 -11.03125 C 7.90625 -10.632812 7.21875 -10.210938 6.53125 -9.765625 C 6.476562 -9.734375 6.441406 -9.675781 6.421875 -9.59375 C 6.398438 -9.507812 6.375 -9.429688 6.34375 -9.359375 C 6.375 -9.253906 6.414062 -9.179688 6.46875 -9.140625 C 6.53125 -9.097656 6.601562 -9.078125 6.6875 -9.078125 C 8.195312 -8.992188 9.691406 -8.75 11.171875 -8.34375 C 15.421875 -7.21875 18.742188 -4.628906 21.140625 -0.578125 C 24.054688 4.316406 25.1875 9.695312 24.53125 15.5625 C 24.4375 16.238281 24.335938 16.90625 24.234375 17.5625 C 24.203125 17.769531 24.171875 17.96875 24.140625 18.15625 C 24.097656 18.4375 23.96875 18.664062 23.75 18.84375 C 23.664062 18.914062 23.570312 18.96875 23.46875 19 C 23.363281 19.03125 23.257812 19.015625 23.15625 18.953125 C 23.050781 18.890625 22.984375 18.804688 22.953125 18.703125 C 22.921875 18.609375 22.921875 18.503906 22.953125 18.390625 C 23.140625 17.285156 23.25 16.1875 23.28125 15.09375 C 23.425781 11.925781 23.054688 8.960938 22.171875 6.203125 C 21.296875 3.441406 19.953125 0.878906 18.140625 -1.484375 C 16.878906 -3.117188 15.441406 -4.394531 13.828125 -5.3125 C 12.222656 -6.238281 10.476562 -6.875 8.59375 -7.21875 C 7.976562 -7.34375 7.359375 -7.425781 6.734375 -7.46875 C 6.359375 -7.507812 6.15625 -7.316406 6.125 -6.890625 C 6.082031 -6.367188 6.054688 -5.847656 6.046875 -5.328125 C 6.015625 -2.785156 5.988281 -0.253906 5.96875 2.265625 C 5.914062 5.515625 5.875 8.757812 5.84375 12 C 5.84375 12.289062 5.8125 12.578125 5.75 12.859375 C 5.632812 13.140625 5.429688 13.289062 5.140625 13.3125 C 4.984375 13.320312 4.863281 13.269531 4.78125 13.15625 C 4.707031 13.050781 4.664062 12.921875 4.65625 12.765625 C 4.601562 12.253906 4.578125 11.734375 4.578125 11.203125 C 4.546875 6.398438 4.515625 1.601562 4.484375 -3.1875 C 4.484375 -3.695312 4.484375 -4.203125 4.484375 -4.703125 C 4.484375 -4.941406 4.484375 -5.179688 4.484375 -5.421875 C 4.484375 -5.828125 4.484375 -6.226562 4.484375 -6.625 C 4.484375 -7.039062 4.421875 -7.304688 4.296875 -7.421875 C 4.171875 -7.546875 3.910156 -7.597656 3.515625 -7.578125 C 2.628906 -7.566406 1.765625 -7.375 0.921875 -7 C 0.140625 -6.625 -0.664062 -6.296875 -1.5 -6.015625 C -1.507812 -5.992188 -1.523438 -5.984375 -1.546875 -5.984375 C -1.984375 -5.796875 -2.445312 -5.75 -2.9375 -5.84375 C -3.09375 -5.875 -3.195312 -5.972656 -3.25 -6.140625 C -3.3125 -6.304688 -3.300781 -6.46875 -3.21875 -6.625 C -3.101562 -6.875 -2.941406 -7.066406 -2.734375 -7.203125 C -2.535156 -7.347656 -2.335938 -7.472656 -2.140625 -7.578125 C -1.140625 -8.109375 -0.09375 -8.453125 1 -8.609375 C 1.4375 -8.679688 1.851562 -8.800781 2.25 -8.96875 C 2.65625 -9.144531 3.046875 -9.332031 3.421875 -9.53125 C 3.597656 -9.613281 3.757812 -9.691406 3.90625 -9.765625 C 4.320312 -9.992188 4.53125 -10.363281 4.53125 -10.875 C 4.5625 -12.445312 4.601562 -14.015625 4.65625 -15.578125 C 4.738281 -17.878906 4.789062 -20.179688 4.8125 -22.484375 C 4.84375 -24.796875 4.789062 -27.101562 4.65625 -29.40625 C 4.632812 -29.695312 4.660156 -29.976562 4.734375 -30.25 C 4.785156 -30.414062 4.90625 -30.5625 5.09375 -30.6875 C 5.28125 -30.820312 5.453125 -30.875 5.609375 -30.84375 C 5.878906 -30.757812 6.039062 -30.550781 6.09375 -30.21875 C 6.113281 -30.101562 6.132812 -29.984375 6.15625 -29.859375 C 6.238281 -29.472656 6.296875 -29.078125 6.328125 -28.671875 C 6.515625 -26.242188 6.566406 -23.800781 6.484375 -21.34375 C 6.421875 -19.09375 6.367188 -16.835938 6.328125 -14.578125 C 6.304688 -13.804688 6.289062 -13.035156 6.28125 -12.265625 C 6.28125 -12.097656 6.285156 -11.898438 6.296875 -11.671875 C 6.316406 -11.535156 6.328125 -11.390625 6.328125 -11.234375 C 6.460938 -11.285156 6.582031 -11.316406 6.6875 -11.328125 C 6.863281 -11.390625 7 -11.453125 7.09375 -11.515625 C 9.570312 -12.910156 11.984375 -14.40625 14.328125 -16 C 16.679688 -17.59375 18.945312 -19.351562 21.125 -21.28125 C 22.59375 -22.5625 23.984375 -23.957031 25.296875 -25.46875 C 26.015625 -26.300781 26.660156 -27.21875 27.234375 -28.21875 C 27.484375 -28.707031 27.703125 -29.234375 27.890625 -29.796875 C 28.128906 -30.523438 28.164062 -31.203125 28 -31.828125 C 27.832031 -32.453125 27.488281 -33.023438 26.96875 -33.546875 C 26.332031 -34.160156 25.613281 -34.613281 24.8125 -34.90625 C 23.332031 -35.488281 21.8125 -35.832031 20.25 -35.9375 C 17.1875 -36.15625 14.1875 -35.945312 11.25 -35.3125 C 8.3125 -34.675781 5.4375 -33.691406 2.625 -32.359375 C 2.09375 -32.097656 1.585938 -31.804688 1.109375 -31.484375 C 0.566406 -31.140625 0.0820312 -30.738281 -0.34375 -30.28125 C -0.769531 -29.832031 -1.117188 -29.289062 -1.390625 -28.65625 C -1.492188 -28.394531 -1.644531 -28.171875 -1.84375 -27.984375 C -1.957031 -27.890625 -2.078125 -27.832031 -2.203125 -27.8125 C -2.328125 -27.789062 -2.453125 -27.832031 -2.578125 -27.9375 C -2.660156 -28 -2.707031 -28.085938 -2.71875 -28.203125 C -2.738281 -28.316406 -2.738281 -28.429688 -2.71875 -28.546875 C -2.632812 -29.015625 -2.445312 -29.429688 -2.15625 -29.796875 C -1.519531 -30.722656 -0.757812 -31.492188 0.125 -32.109375 C 1.101562 -32.804688 2.125 -33.382812 3.1875 -33.84375 C 5.96875 -35.113281 8.796875 -36.054688 11.671875 -36.671875 C 14.554688 -37.296875 17.507812 -37.523438 20.53125 -37.359375 C 22.300781 -37.273438 24.035156 -36.929688 25.734375 -36.328125 C 26.617188 -36.003906 27.441406 -35.519531 28.203125 -34.875 Z M 28.203125 -34.875 "/></g></g></g><g fill="#000000" fill-opacity="1"><g transform="translate(188.264948, 59.63125)"><g><path d="M 3 -8.5625 C 4.019531 -8.601562 4.71875 -8.128906 5.09375 -7.140625 C 5.375 -6.421875 5.453125 -5.648438 5.328125 -4.828125 C 5.203125 -4.003906 4.925781 -3.316406 4.5 -2.765625 C 4.09375 -2.265625 3.59375 -1.941406 3 -1.796875 C 2.40625 -1.660156 1.820312 -1.707031 1.25 -1.9375 C 0.6875 -2.175781 0.242188 -2.648438 -0.078125 -3.359375 C -0.335938 -3.984375 -0.425781 -4.609375 -0.34375 -5.234375 C -0.269531 -5.765625 -0.117188 -6.28125 0.109375 -6.78125 C 0.359375 -7.394531 0.738281 -7.835938 1.25 -8.109375 C 1.757812 -8.390625 2.34375 -8.539062 3 -8.5625 Z M 2.546875 -2.640625 C 2.972656 -2.898438 3.28125 -3.269531 3.46875 -3.75 C 3.65625 -4.238281 3.757812 -4.757812 3.78125 -5.3125 C 3.800781 -5.875 3.757812 -6.398438 3.65625 -6.890625 C 3.5 -7.554688 3.296875 -7.882812 3.046875 -7.875 C 2.796875 -7.863281 2.539062 -7.640625 2.28125 -7.203125 C 2.019531 -6.765625 1.785156 -6.238281 1.578125 -5.625 C 1.378906 -5.007812 1.257812 -4.414062 1.21875 -3.84375 C 1.175781 -3.28125 1.253906 -2.867188 1.453125 -2.609375 C 1.648438 -2.359375 2.015625 -2.367188 2.546875 -2.640625 Z M 2.546875 -2.640625 "/></g></g></g><g fill="#000000" fill-opacity="1"><g transform="translate(201.925756, 59.63125)"><g><path d="M 3 -8.5625 C 4.019531 -8.601562 4.71875 -8.128906 5.09375 -7.140625 C 5.375 -6.421875 5.453125 -5.648438 5.328125 -4.828125 C 5.203125 -4.003906 4.925781 -3.316406 4.5 -2.765625 C 4.09375 -2.265625 3.59375 -1.941406 3 -1.796875 C 2.40625 -1.660156 1.820312 -1.707031 1.25 -1.9375 C 0.6875 -2.175781 0.242188 -2.648438 -0.078125 -3.359375 C -0.335938 -3.984375 -0.425781 -4.609375 -0.34375 -5.234375 C -0.269531 -5.765625 -0.117188 -6.28125 0.109375 -6.78125 C 0.359375 -7.394531 0.738281 -7.835938 1.25 -8.109375 C 1.757812 -8.390625 2.34375 -8.539062 3 -8.5625 Z M 2.546875 -2.640625 C 2.972656 -2.898438 3.28125 -3.269531 3.46875 -3.75 C 3.65625 -4.238281 3.757812 -4.757812 3.78125 -5.3125 C 3.800781 -5.875 3.757812 -6.398438 3.65625 -6.890625 C 3.5 -7.554688 3.296875 -7.882812 3.046875 -7.875 C 2.796875 -7.863281 2.539062 -7.640625 2.28125 -7.203125 C 2.019531 -6.765625 1.785156 -6.238281 1.578125 -5.625 C 1.378906 -5.007812 1.257812 -4.414062 1.21875 -3.84375 C 1.175781 -3.28125 1.253906 -2.867188 1.453125 -2.609375 C 1.648438 -2.359375 2.015625 -2.367188 2.546875 -2.640625 Z M 2.546875 -2.640625 "/></g></g></g><g fill="#000000" fill-opacity="1"><g transform="translate(215.586565, 59.63125)"><g><path d="M 14.25 -4.359375 C 14.25 -4.359375 14.257812 -4.367188 14.28125 -4.390625 C 14.351562 -4.453125 14.519531 -4.601562 14.78125 -4.84375 C 15.050781 -5.09375 15.328125 -5.320312 15.609375 -5.53125 C 15.890625 -5.75 16.097656 -5.863281 16.234375 -5.875 C 16.367188 -5.882812 16.332031 -5.6875 16.125 -5.28125 C 16.113281 -5.238281 16.078125 -5.179688 16.015625 -5.109375 C 15.960938 -5.035156 15.90625 -4.957031 15.84375 -4.875 C 15.832031 -4.863281 15.816406 -4.847656 15.796875 -4.828125 C 14.578125 -3.554688 13.628906 -2.664062 12.953125 -2.15625 C 12.273438 -1.65625 11.609375 -1.429688 10.953125 -1.484375 C 10.273438 -1.554688 9.816406 -1.875 9.578125 -2.4375 C 9.335938 -3 9.234375 -3.695312 9.265625 -4.53125 C 9.296875 -5.363281 9.363281 -6.203125 9.46875 -7.046875 C 9.59375 -7.929688 9.65625 -8.679688 9.65625 -9.296875 C 9.65625 -9.921875 9.484375 -10.273438 9.140625 -10.359375 C 8.859375 -10.378906 8.554688 -10.070312 8.234375 -9.4375 C 7.921875 -8.800781 7.613281 -8.046875 7.3125 -7.171875 C 7.007812 -6.296875 6.757812 -5.507812 6.5625 -4.8125 C 6.375 -4.226562 6.242188 -3.84375 6.171875 -3.65625 C 6.054688 -3.375 5.863281 -3.191406 5.59375 -3.109375 C 5.320312 -3.035156 5.050781 -3.0625 4.78125 -3.1875 C 4.59375 -3.269531 4.492188 -3.40625 4.484375 -3.59375 C 4.421875 -4 4.398438 -4.425781 4.421875 -4.875 C 4.421875 -5.175781 4.410156 -5.460938 4.390625 -5.734375 C 4.390625 -5.804688 4.390625 -5.890625 4.390625 -5.984375 C 4.410156 -6.117188 4.414062 -6.253906 4.40625 -6.390625 C 4.394531 -6.535156 4.378906 -6.65625 4.359375 -6.75 C 4.335938 -6.851562 4.289062 -6.914062 4.21875 -6.9375 C 4.082031 -6.9375 3.914062 -6.773438 3.71875 -6.453125 C 3.519531 -6.128906 3.320312 -5.726562 3.125 -5.25 C 2.925781 -4.78125 2.75 -4.359375 2.59375 -3.984375 C 2.476562 -3.648438 2.394531 -3.425781 2.34375 -3.3125 C 2.3125 -3.257812 2.285156 -3.21875 2.265625 -3.1875 C 2.109375 -2.851562 1.945312 -2.535156 1.78125 -2.234375 C 1.632812 -1.972656 1.421875 -1.816406 1.140625 -1.765625 C 0.484375 -1.679688 0.128906 -1.9375 0.078125 -2.53125 C 0.0351562 -4.082031 0.00390625 -5.632812 -0.015625 -7.1875 C -0.00390625 -7.488281 0.117188 -7.679688 0.359375 -7.765625 C 0.597656 -7.847656 0.847656 -7.847656 1.109375 -7.765625 C 1.367188 -7.679688 1.515625 -7.523438 1.546875 -7.296875 C 1.554688 -7.191406 1.5625 -7.078125 1.5625 -6.953125 C 1.632812 -6.296875 1.71875 -5.96875 1.8125 -5.96875 C 1.90625 -5.96875 2.125 -6.253906 2.46875 -6.828125 C 2.632812 -7.128906 2.8125 -7.421875 3 -7.703125 C 3.226562 -8.097656 3.523438 -8.441406 3.890625 -8.734375 C 4.285156 -8.992188 4.660156 -9.070312 5.015625 -8.96875 C 5.378906 -8.863281 5.664062 -8.597656 5.875 -8.171875 C 6 -7.898438 6.113281 -7.789062 6.21875 -7.84375 C 6.21875 -7.84375 6.226562 -7.847656 6.25 -7.859375 C 6.28125 -7.960938 6.414062 -8.265625 6.65625 -8.765625 C 6.90625 -9.265625 7.226562 -9.804688 7.625 -10.390625 C 8.03125 -10.984375 8.484375 -11.46875 8.984375 -11.84375 C 9.328125 -12.082031 9.691406 -12.21875 10.078125 -12.25 C 10.472656 -12.28125 10.820312 -12.171875 11.125 -11.921875 C 11.425781 -11.679688 11.601562 -11.265625 11.65625 -10.671875 C 11.6875 -10.191406 11.65625 -9.515625 11.5625 -8.640625 C 11.46875 -7.765625 11.359375 -6.90625 11.234375 -6.0625 C 11.140625 -5.269531 11.078125 -4.660156 11.046875 -4.234375 C 11.003906 -3.347656 11.15625 -2.863281 11.5 -2.78125 C 11.84375 -2.707031 12.269531 -2.84375 12.78125 -3.1875 C 13.300781 -3.539062 13.789062 -3.929688 14.25 -4.359375 Z M 14.25 -4.359375 "/></g></g></g><g fill="#000000" fill-opacity="1"><g transform="translate(238.125025, 59.63125)"><g><path d="M 3.453125 -4.25 C 3.722656 -3.914062 3.894531 -3.5625 3.96875 -3.1875 C 4.050781 -2.820312 4.082031 -2.425781 4.0625 -2 C 4.039062 -1.570312 3.898438 -1.1875 3.640625 -0.84375 C 3.390625 -0.507812 2.960938 -0.3125 2.359375 -0.25 C 1.765625 -0.195312 1.226562 -0.285156 0.75 -0.515625 C 0.28125 -0.742188 -0.0078125 -1.078125 -0.125 -1.515625 C -0.25 -1.953125 -0.109375 -2.460938 0.296875 -3.046875 C 0.578125 -3.378906 0.90625 -3.664062 1.28125 -3.90625 C 1.414062 -3.988281 1.554688 -4.082031 1.703125 -4.1875 C 1.234375 -4.6875 0.789062 -5.195312 0.375 -5.71875 C -0.03125 -6.238281 -0.289062 -6.707031 -0.40625 -7.125 C -0.53125 -7.601562 -0.453125 -8.050781 -0.171875 -8.46875 C 0.109375 -8.882812 0.601562 -9.128906 1.3125 -9.203125 C 1.65625 -9.234375 1.972656 -9.210938 2.265625 -9.140625 C 2.566406 -9.078125 2.847656 -8.9375 3.109375 -8.71875 C 3.160156 -8.65625 3.195312 -8.59375 3.21875 -8.53125 C 3.25 -8.46875 3.238281 -8.382812 3.1875 -8.28125 C 3.101562 -8.125 2.976562 -8.046875 2.8125 -8.046875 C 2.6875 -8.046875 2.5625 -8.0625 2.4375 -8.09375 C 2.3125 -8.144531 2.203125 -8.195312 2.109375 -8.25 C 2.035156 -8.28125 1.96875 -8.3125 1.90625 -8.34375 C 1.675781 -8.4375 1.5 -8.425781 1.375 -8.3125 C 1.257812 -8.207031 1.203125 -8.039062 1.203125 -7.8125 C 1.222656 -7.414062 1.382812 -6.988281 1.6875 -6.53125 C 2 -6.082031 2.3125 -5.664062 2.625 -5.28125 C 2.75 -5.15625 2.851562 -5.03125 2.9375 -4.90625 C 3.019531 -4.8125 3.191406 -4.59375 3.453125 -4.25 Z M 1.875 -1.125 C 2.09375 -1.132812 2.238281 -1.253906 2.3125 -1.484375 C 2.382812 -1.722656 2.410156 -1.984375 2.390625 -2.265625 C 2.367188 -2.546875 2.351562 -2.757812 2.34375 -2.90625 C 2.3125 -2.988281 2.253906 -3.039062 2.171875 -3.0625 C 2.097656 -3.082031 2.023438 -3.078125 1.953125 -3.046875 C 1.691406 -2.847656 1.5 -2.59375 1.375 -2.28125 C 1.257812 -1.96875 1.273438 -1.695312 1.421875 -1.46875 C 1.460938 -1.375 1.519531 -1.296875 1.59375 -1.234375 C 1.675781 -1.171875 1.769531 -1.132812 1.875 -1.125 Z M 1.875 -1.125 "/></g></g></g><g fill="#000000" fill-opacity="1"><g transform="translate(250.629163, 59.63125)"><g/></g></g><g fill="#000000" fill-opacity="1"><g transform="translate(72.461656, 337.082786)"><g><path d="M 4.859375 -7.96875 C 5.597656 -7.96875 6.253906 -7.789062 6.828125 -7.4375 C 7.410156 -7.09375 7.867188 -6.609375 8.203125 -5.984375 C 8.535156 -5.359375 8.703125 -4.644531 8.703125 -3.84375 C 8.703125 -3.050781 8.535156 -2.34375 8.203125 -1.71875 C 7.878906 -1.101562 7.429688 -0.617188 6.859375 -0.265625 C 6.285156 0.0859375 5.628906 0.265625 4.890625 0.265625 C 4.328125 0.265625 3.8125 0.140625 3.34375 -0.109375 C 2.882812 -0.359375 2.492188 -0.707031 2.171875 -1.15625 L 2.171875 3.296875 L 1.046875 3.296875 L 1.046875 -7.703125 L 2.171875 -7.703125 L 2.171875 -6.578125 C 2.492188 -7.015625 2.882812 -7.351562 3.34375 -7.59375 C 3.800781 -7.84375 4.304688 -7.96875 4.859375 -7.96875 Z M 4.890625 -0.75 C 5.410156 -0.75 5.875 -0.878906 6.28125 -1.140625 C 6.6875 -1.410156 7.003906 -1.78125 7.234375 -2.25 C 7.460938 -2.71875 7.578125 -3.25 7.578125 -3.84375 C 7.578125 -4.445312 7.460938 -4.984375 7.234375 -5.453125 C 7.003906 -5.921875 6.6875 -6.285156 6.28125 -6.546875 C 5.875 -6.816406 5.410156 -6.953125 4.890625 -6.953125 C 4.359375 -6.953125 3.882812 -6.816406 3.46875 -6.546875 C 3.0625 -6.285156 2.742188 -5.921875 2.515625 -5.453125 C 2.285156 -4.984375 2.171875 -4.453125 2.171875 -3.859375 C 2.171875 -3.265625 2.285156 -2.726562 2.515625 -2.25 C 2.742188 -1.78125 3.0625 -1.410156 3.46875 -1.140625 C 3.882812 -0.878906 4.359375 -0.75 4.890625 -0.75 Z M 4.890625 -0.75 "/></g></g></g><g fill="#000000" fill-opacity="1"><g transform="translate(86.769965, 337.082786)"><g><path d="M 4.828125 -7.96875 C 5.085938 -7.96875 5.335938 -7.929688 5.578125 -7.859375 L 5.578125 -6.828125 C 5.347656 -6.941406 5.097656 -7 4.828125 -7 C 4.359375 -7 3.921875 -6.863281 3.515625 -6.59375 C 3.109375 -6.332031 2.78125 -5.953125 2.53125 -5.453125 C 2.28125 -4.953125 2.15625 -4.363281 2.15625 -3.6875 L 2.15625 0 L 1.03125 0 L 1.03125 -7.703125 L 2.15625 -7.703125 L 2.15625 -6.15625 C 2.457031 -6.726562 2.832031 -7.171875 3.28125 -7.484375 C 3.738281 -7.804688 4.253906 -7.96875 4.828125 -7.96875 Z M 4.828125 -7.96875 "/></g></g></g><g fill="#000000" fill-opacity="1"><g transform="translate(97.423922, 337.082786)"><g><path d="M 1.640625 0 L 1.640625 -7.703125 L 2.765625 -7.703125 L 2.765625 0 Z M 2.203125 -9.203125 C 1.953125 -9.203125 1.738281 -9.289062 1.5625 -9.46875 C 1.394531 -9.644531 1.3125 -9.859375 1.3125 -10.109375 C 1.3125 -10.347656 1.394531 -10.550781 1.5625 -10.71875 C 1.738281 -10.894531 1.953125 -10.984375 2.203125 -10.984375 C 2.453125 -10.984375 2.660156 -10.894531 2.828125 -10.71875 C 3.003906 -10.550781 3.09375 -10.34375 3.09375 -10.09375 C 3.09375 -9.851562 3.003906 -9.644531 2.828125 -9.46875 C 2.660156 -9.289062 2.453125 -9.203125 2.203125 -9.203125 Z M 2.203125 -9.203125 "/></g></g></g><g fill="#000000" fill-opacity="1"><g transform="translate(106.909135, 337.082786)"><g><path d="M 6.03125 -7.703125 L 7.15625 -7.703125 L 4.359375 0 L 3.125 0 L 0.34375 -7.703125 L 1.515625 -7.703125 L 3.78125 -1.203125 Z M 6.03125 -7.703125 "/></g></g></g><g fill="#000000" fill-opacity="1"><g transform="translate(119.47258, 337.082786)"><g><path d="M 8.203125 -7.703125 L 8.203125 0 L 7.078125 0 L 7.078125 -1.140625 C 6.765625 -0.703125 6.375 -0.359375 5.90625 -0.109375 C 5.445312 0.140625 4.941406 0.265625 4.390625 0.265625 C 3.660156 0.265625 3.003906 0.0859375 2.421875 -0.265625 C 1.835938 -0.617188 1.378906 -1.109375 1.046875 -1.734375 C 0.722656 -2.359375 0.5625 -3.070312 0.5625 -3.875 C 0.5625 -4.664062 0.722656 -5.367188 1.046875 -5.984375 C 1.367188 -6.609375 1.816406 -7.09375 2.390625 -7.4375 C 2.972656 -7.789062 3.628906 -7.96875 4.359375 -7.96875 C 4.921875 -7.96875 5.4375 -7.84375 5.90625 -7.59375 C 6.375 -7.351562 6.765625 -7.003906 7.078125 -6.546875 L 7.078125 -7.703125 Z M 4.359375 -0.75 C 4.890625 -0.75 5.359375 -0.878906 5.765625 -1.140625 C 6.179688 -1.410156 6.503906 -1.78125 6.734375 -2.25 C 6.960938 -2.726562 7.078125 -3.265625 7.078125 -3.859375 C 7.078125 -4.453125 6.960938 -4.984375 6.734375 -5.453125 C 6.503906 -5.921875 6.179688 -6.285156 5.765625 -6.546875 C 5.359375 -6.816406 4.890625 -6.953125 4.359375 -6.953125 C 3.847656 -6.953125 3.390625 -6.816406 2.984375 -6.546875 C 2.578125 -6.285156 2.257812 -5.921875 2.03125 -5.453125 C 1.800781 -4.992188 1.6875 -4.46875 1.6875 -3.875 C 1.6875 -3.269531 1.800781 -2.726562 2.03125 -2.25 C 2.257812 -1.78125 2.578125 -1.410156 2.984375 -1.140625 C 3.390625 -0.878906 3.847656 -0.75 4.359375 -0.75 Z M 4.359375 -0.75 "/></g></g></g><g fill="#000000" fill-opacity="1"><g transform="translate(133.780888, 337.082786)"><g><path d="M 1.453125 0 L 1.453125 -6.6875 L 0.125 -6.6875 L 0.125 -7.703125 L 1.453125 -7.703125 L 1.453125 -10.265625 L 2.5625 -10.265625 L 2.5625 -7.703125 L 4.34375 -7.703125 L 4.34375 -6.6875 L 2.5625 -6.6875 L 2.5625 0 Z M 1.453125 0 "/></g></g></g><g fill="#000000" fill-opacity="1"><g transform="translate(143.381333, 337.082786)"><g><path d="M 4.359375 -7.96875 C 5.054688 -7.96875 5.679688 -7.796875 6.234375 -7.453125 C 6.796875 -7.117188 7.234375 -6.65625 7.546875 -6.0625 C 7.867188 -5.476562 8.03125 -4.820312 8.03125 -4.09375 C 8.03125 -3.882812 8.023438 -3.726562 8.015625 -3.625 L 1.6875 -3.625 C 1.726562 -2.832031 1.984375 -2.15625 2.453125 -1.59375 C 2.921875 -1.03125 3.5625 -0.75 4.375 -0.75 C 5.039062 -0.75 5.585938 -0.875 6.015625 -1.125 C 6.453125 -1.375 6.800781 -1.71875 7.0625 -2.15625 L 7.953125 -1.5625 C 7.585938 -0.988281 7.109375 -0.539062 6.515625 -0.21875 C 5.921875 0.101562 5.21875 0.265625 4.40625 0.265625 C 3.664062 0.265625 3.003906 0.0859375 2.421875 -0.265625 C 1.835938 -0.617188 1.378906 -1.109375 1.046875 -1.734375 C 0.722656 -2.359375 0.5625 -3.066406 0.5625 -3.859375 C 0.5625 -4.648438 0.722656 -5.359375 1.046875 -5.984375 C 1.367188 -6.609375 1.816406 -7.09375 2.390625 -7.4375 C 2.972656 -7.789062 3.628906 -7.96875 4.359375 -7.96875 Z M 6.921875 -4.546875 C 6.804688 -5.347656 6.535156 -5.945312 6.109375 -6.34375 C 5.679688 -6.75 5.097656 -6.953125 4.359375 -6.953125 C 3.648438 -6.953125 3.066406 -6.722656 2.609375 -6.265625 C 2.148438 -5.804688 1.863281 -5.234375 1.75 -4.546875 Z M 6.921875 -4.546875 "/></g></g></g><g fill="#000000" fill-opacity="1"><g transform="translate(157.097051, 337.082786)"><g/></g></g><g fill="#000000" fill-opacity="1"><g transform="translate(165.841516, 337.082786)"><g><path d="M 8.203125 -7.703125 L 8.203125 -0.296875 C 8.203125 0.390625 8.054688 1.003906 7.765625 1.546875 C 7.484375 2.097656 7.082031 2.523438 6.5625 2.828125 C 6.050781 3.140625 5.46875 3.296875 4.8125 3.296875 L 1.609375 3.296875 L 1.609375 2.265625 L 4.8125 2.265625 C 5.476562 2.265625 6.019531 2.023438 6.4375 1.546875 C 6.863281 1.066406 7.078125 0.453125 7.078125 -0.296875 L 7.078125 -1.140625 C 6.765625 -0.703125 6.375 -0.359375 5.90625 -0.109375 C 5.445312 0.140625 4.941406 0.265625 4.390625 0.265625 C 3.660156 0.265625 3.003906 0.0859375 2.421875 -0.265625 C 1.835938 -0.617188 1.378906 -1.109375 1.046875 -1.734375 C 0.722656 -2.359375 0.5625 -3.070312 0.5625 -3.875 C 0.5625 -4.664062 0.722656 -5.367188 1.046875 -5.984375 C 1.367188 -6.609375 1.816406 -7.09375 2.390625 -7.4375 C 2.972656 -7.789062 3.628906 -7.96875 4.359375 -7.96875 C 4.921875 -7.96875 5.4375 -7.84375 5.90625 -7.59375 C 6.375 -7.351562 6.765625 -7.003906 7.078125 -6.546875 L 7.078125 -7.703125 Z M 4.359375 -0.75 C 4.890625 -0.75 5.359375 -0.878906 5.765625 -1.140625 C 6.179688 -1.410156 6.503906 -1.78125 6.734375 -2.25 C 6.960938 -2.726562 7.078125 -3.265625 7.078125 -3.859375 C 7.078125 -4.453125 6.960938 -4.984375 6.734375 -5.453125 C 6.503906 -5.921875 6.179688 -6.285156 5.765625 -6.546875 C 5.359375 -6.816406 4.890625 -6.953125 4.359375 -6.953125 C 3.847656 -6.953125 3.390625 -6.816406 2.984375 -6.546875 C 2.578125 -6.285156 2.257812 -5.921875 2.03125 -5.453125 C 1.800781 -4.992188 1.6875 -4.46875 1.6875 -3.875 C 1.6875 -3.269531 1.800781 -2.726562 2.03125 -2.25 C 2.257812 -1.78125 2.578125 -1.410156 2.984375 -1.140625 C 3.390625 -0.878906 3.847656 -0.75 4.359375 -0.75 Z M 4.359375 -0.75 "/></g></g></g><g fill="#000000" fill-opacity="1"><g transform="translate(180.149824, 337.082786)"><g><path d="M 7.8125 -7.703125 L 7.8125 0 L 6.6875 0 L 6.6875 -1.28125 C 6.425781 -0.789062 6.078125 -0.410156 5.640625 -0.140625 C 5.203125 0.128906 4.703125 0.265625 4.140625 0.265625 C 3.597656 0.265625 3.097656 0.15625 2.640625 -0.0625 C 2.179688 -0.28125 1.816406 -0.601562 1.546875 -1.03125 C 1.285156 -1.46875 1.15625 -1.972656 1.15625 -2.546875 L 1.15625 -7.703125 L 2.265625 -7.703125 L 2.265625 -3.046875 C 2.265625 -1.515625 2.945312 -0.75 4.3125 -0.75 C 5.101562 -0.75 5.695312 -1.03125 6.09375 -1.59375 C 6.488281 -2.15625 6.6875 -2.910156 6.6875 -3.859375 L 6.6875 -7.703125 Z M 7.8125 -7.703125 "/></g></g></g><g fill="#000000" fill-opacity="1"><g transform="translate(194.063071, 337.082786)"><g><path d="M 4.359375 -7.96875 C 5.054688 -7.96875 5.679688 -7.796875 6.234375 -7.453125 C 6.796875 -7.117188 7.234375 -6.65625 7.546875 -6.0625 C 7.867188 -5.476562 8.03125 -4.820312 8.03125 -4.09375 C 8.03125 -3.882812 8.023438 -3.726562 8.015625 -3.625 L 1.6875 -3.625 C 1.726562 -2.832031 1.984375 -2.15625 2.453125 -1.59375 C 2.921875 -1.03125 3.5625 -0.75 4.375 -0.75 C 5.039062 -0.75 5.585938 -0.875 6.015625 -1.125 C 6.453125 -1.375 6.800781 -1.71875 7.0625 -2.15625 L 7.953125 -1.5625 C 7.585938 -0.988281 7.109375 -0.539062 6.515625 -0.21875 C 5.921875 0.101562 5.21875 0.265625 4.40625 0.265625 C 3.664062 0.265625 3.003906 0.0859375 2.421875 -0.265625 C 1.835938 -0.617188 1.378906 -1.109375 1.046875 -1.734375 C 0.722656 -2.359375 0.5625 -3.066406 0.5625 -3.859375 C 0.5625 -4.648438 0.722656 -5.359375 1.046875 -5.984375 C 1.367188 -6.609375 1.816406 -7.09375 2.390625 -7.4375 C 2.972656 -7.789062 3.628906 -7.96875 4.359375 -7.96875 Z M 6.921875 -4.546875 C 6.804688 -5.347656 6.535156 -5.945312 6.109375 -6.34375 C 5.679688 -6.75 5.097656 -6.953125 4.359375 -6.953125 C 3.648438 -6.953125 3.066406 -6.722656 2.609375 -6.265625 C 2.148438 -5.804688 1.863281 -5.234375 1.75 -4.546875 Z M 6.921875 -4.546875 "/></g></g></g><g fill="#000000" fill-opacity="1"><g transform="translate(207.77879, 337.082786)"><g><path d="M 3.75 0.265625 C 3.007812 0.265625 2.351562 0.109375 1.78125 -0.203125 C 1.21875 -0.523438 0.789062 -0.976562 0.5 -1.5625 L 1.5 -2.0625 C 1.90625 -1.1875 2.703125 -0.75 3.890625 -0.75 C 4.460938 -0.75 4.929688 -0.851562 5.296875 -1.0625 C 5.671875 -1.28125 5.859375 -1.609375 5.859375 -2.046875 C 5.859375 -2.492188 5.707031 -2.828125 5.40625 -3.046875 C 5.101562 -3.265625 4.578125 -3.40625 3.828125 -3.46875 C 2.765625 -3.5625 2.003906 -3.800781 1.546875 -4.1875 C 1.097656 -4.570312 0.875 -5.082031 0.875 -5.71875 C 0.875 -6.425781 1.128906 -6.976562 1.640625 -7.375 C 2.160156 -7.769531 2.867188 -7.96875 3.765625 -7.96875 C 5.296875 -7.96875 6.335938 -7.363281 6.890625 -6.15625 L 5.875 -5.671875 C 5.6875 -6.109375 5.414062 -6.429688 5.0625 -6.640625 C 4.707031 -6.847656 4.25 -6.953125 3.6875 -6.953125 C 3.113281 -6.953125 2.675781 -6.847656 2.375 -6.640625 C 2.070312 -6.429688 1.921875 -6.132812 1.921875 -5.75 C 1.921875 -5.382812 2.082031 -5.085938 2.40625 -4.859375 C 2.738281 -4.640625 3.296875 -4.5 4.078125 -4.4375 C 5.054688 -4.34375 5.785156 -4.097656 6.265625 -3.703125 C 6.742188 -3.316406 6.984375 -2.804688 6.984375 -2.171875 C 6.984375 -1.660156 6.832031 -1.21875 6.53125 -0.84375 C 6.238281 -0.476562 5.84375 -0.203125 5.34375 -0.015625 C 4.851562 0.171875 4.320312 0.265625 3.75 0.265625 Z M 3.75 0.265625 "/></g></g></g><g fill="#000000" fill-opacity="1"><g transform="translate(220.490381, 337.082786)"><g><path d="M 1.453125 0 L 1.453125 -6.6875 L 0.125 -6.6875 L 0.125 -7.703125 L 1.453125 -7.703125 L 1.453125 -10.265625 L 2.5625 -10.265625 L 2.5625 -7.703125 L 4.34375 -7.703125 L 4.34375 -6.6875 L 2.5625 -6.6875 L 2.5625 0 Z M 1.453125 0 "/></g></g></g><g fill="#000000" fill-opacity="1"><g transform="translate(230.090834, 337.082786)"><g/></g></g><g fill="#000000" fill-opacity="1"><g transform="translate(238.835308, 337.082786)"><g><path d="M 4.828125 -7.96875 C 5.085938 -7.96875 5.335938 -7.929688 5.578125 -7.859375 L 5.578125 -6.828125 C 5.347656 -6.941406 5.097656 -7 4.828125 -7 C 4.359375 -7 3.921875 -6.863281 3.515625 -6.59375 C 3.109375 -6.332031 2.78125 -5.953125 2.53125 -5.453125 C 2.28125 -4.953125 2.15625 -4.363281 2.15625 -3.6875 L 2.15625 0 L 1.03125 0 L 1.03125 -7.703125 L 2.15625 -7.703125 L 2.15625 -6.15625 C 2.457031 -6.726562 2.832031 -7.171875 3.28125 -7.484375 C 3.738281 -7.804688 4.253906 -7.96875 4.828125 -7.96875 Z M 4.828125 -7.96875 "/></g></g></g><g fill="#000000" fill-opacity="1"><g transform="translate(249.489271, 337.082786)"><g><path d="M 4.390625 0.265625 C 3.660156 0.265625 3.003906 0.0859375 2.421875 -0.265625 C 1.835938 -0.617188 1.378906 -1.109375 1.046875 -1.734375 C 0.722656 -2.367188 0.5625 -3.082031 0.5625 -3.875 C 0.5625 -4.664062 0.722656 -5.367188 1.046875 -5.984375 C 1.367188 -6.609375 1.816406 -7.09375 2.390625 -7.4375 C 2.972656 -7.789062 3.628906 -7.96875 4.359375 -7.96875 C 5.097656 -7.96875 5.757812 -7.789062 6.34375 -7.4375 C 6.925781 -7.09375 7.378906 -6.609375 7.703125 -5.984375 C 8.035156 -5.359375 8.203125 -4.648438 8.203125 -3.859375 C 8.203125 -3.066406 8.039062 -2.359375 7.71875 -1.734375 C 7.394531 -1.109375 6.941406 -0.617188 6.359375 -0.265625 C 5.785156 0.0859375 5.128906 0.265625 4.390625 0.265625 Z M 4.359375 -0.75 C 4.890625 -0.75 5.359375 -0.878906 5.765625 -1.140625 C 6.179688 -1.410156 6.503906 -1.78125 6.734375 -2.25 C 6.960938 -2.726562 7.078125 -3.265625 7.078125 -3.859375 C 7.078125 -4.453125 6.960938 -4.984375 6.734375 -5.453125 C 6.503906 -5.921875 6.179688 -6.285156 5.765625 -6.546875 C 5.359375 -6.816406 4.890625 -6.953125 4.359375 -6.953125 C 3.847656 -6.953125 3.390625 -6.816406 2.984375 -6.546875 C 2.578125 -6.285156 2.257812 -5.921875 2.03125 -5.453125 C 1.800781 -4.992188 1.6875 -4.46875 1.6875 -3.875 C 1.6875 -3.269531 1.800781 -2.726562 2.03125 -2.25 C 2.257812 -1.78125 2.578125 -1.410156 2.984375 -1.140625 C 3.390625 -0.878906 3.847656 -0.75 4.359375 -0.75 Z M 4.359375 -0.75 "/></g></g></g><g fill="#000000" fill-opacity="1"><g transform="translate(263.303762, 337.082786)"><g><path d="M 4.390625 0.265625 C 3.660156 0.265625 3.003906 0.0859375 2.421875 -0.265625 C 1.835938 -0.617188 1.378906 -1.109375 1.046875 -1.734375 C 0.722656 -2.367188 0.5625 -3.082031 0.5625 -3.875 C 0.5625 -4.664062 0.722656 -5.367188 1.046875 -5.984375 C 1.367188 -6.609375 1.816406 -7.09375 2.390625 -7.4375 C 2.972656 -7.789062 3.628906 -7.96875 4.359375 -7.96875 C 5.097656 -7.96875 5.757812 -7.789062 6.34375 -7.4375 C 6.925781 -7.09375 7.378906 -6.609375 7.703125 -5.984375 C 8.035156 -5.359375 8.203125 -4.648438 8.203125 -3.859375 C 8.203125 -3.066406 8.039062 -2.359375 7.71875 -1.734375 C 7.394531 -1.109375 6.941406 -0.617188 6.359375 -0.265625 C 5.785156 0.0859375 5.128906 0.265625 4.390625 0.265625 Z M 4.359375 -0.75 C 4.890625 -0.75 5.359375 -0.878906 5.765625 -1.140625 C 6.179688 -1.410156 6.503906 -1.78125 6.734375 -2.25 C 6.960938 -2.726562 7.078125 -3.265625 7.078125 -3.859375 C 7.078125 -4.453125 6.960938 -4.984375 6.734375 -5.453125 C 6.503906 -5.921875 6.179688 -6.285156 5.765625 -6.546875 C 5.359375 -6.816406 4.890625 -6.953125 4.359375 -6.953125 C 3.847656 -6.953125 3.390625 -6.816406 2.984375 -6.546875 C 2.578125 -6.285156 2.257812 -5.921875 2.03125 -5.453125 C 1.800781 -4.992188 1.6875 -4.46875 1.6875 -3.875 C 1.6875 -3.269531 1.800781 -2.726562 2.03125 -2.25 C 2.257812 -1.78125 2.578125 -1.410156 2.984375 -1.140625 C 3.390625 -0.878906 3.847656 -0.75 4.359375 -0.75 Z M 4.359375 -0.75 "/></g></g></g><g fill="#000000" fill-opacity="1"><g transform="translate(277.118254, 337.082786)"><g><path d="M 9.234375 -7.96875 C 9.953125 -7.96875 10.546875 -7.71875 11.015625 -7.21875 C 11.484375 -6.71875 11.71875 -6.03125 11.71875 -5.15625 L 11.71875 0 L 10.609375 0 L 10.609375 -4.65625 C 10.609375 -5.46875 10.453125 -6.050781 10.140625 -6.40625 C 9.835938 -6.769531 9.4375 -6.953125 8.9375 -6.953125 C 8.332031 -6.953125 7.863281 -6.71875 7.53125 -6.25 C 7.195312 -5.78125 7.003906 -5.144531 6.953125 -4.34375 L 6.953125 0 L 5.828125 0 L 5.828125 -4.65625 C 5.828125 -5.46875 5.671875 -6.050781 5.359375 -6.40625 C 5.054688 -6.769531 4.660156 -6.953125 4.171875 -6.953125 C 3.492188 -6.953125 2.988281 -6.671875 2.65625 -6.109375 C 2.320312 -5.546875 2.15625 -4.796875 2.15625 -3.859375 L 2.15625 0 L 1.03125 0 L 1.03125 -7.703125 L 2.15625 -7.703125 L 2.15625 -6.5 C 2.40625 -6.976562 2.722656 -7.34375 3.109375 -7.59375 C 3.503906 -7.84375 3.957031 -7.96875 4.46875 -7.96875 C 5.019531 -7.96875 5.503906 -7.816406 5.921875 -7.515625 C 6.335938 -7.210938 6.628906 -6.78125 6.796875 -6.21875 C 7.035156 -6.769531 7.363281 -7.195312 7.78125 -7.5 C 8.207031 -7.8125 8.691406 -7.96875 9.234375 -7.96875 Z M 9.234375 -7.96875 "/></g></g></g><g fill="#000000" fill-opacity="1"><g transform="translate(294.866941, 337.082786)"><g><path d="M 3.75 0.265625 C 3.007812 0.265625 2.351562 0.109375 1.78125 -0.203125 C 1.21875 -0.523438 0.789062 -0.976562 0.5 -1.5625 L 1.5 -2.0625 C 1.90625 -1.1875 2.703125 -0.75 3.890625 -0.75 C 4.460938 -0.75 4.929688 -0.851562 5.296875 -1.0625 C 5.671875 -1.28125 5.859375 -1.609375 5.859375 -2.046875 C 5.859375 -2.492188 5.707031 -2.828125 5.40625 -3.046875 C 5.101562 -3.265625 4.578125 -3.40625 3.828125 -3.46875 C 2.765625 -3.5625 2.003906 -3.800781 1.546875 -4.1875 C 1.097656 -4.570312 0.875 -5.082031 0.875 -5.71875 C 0.875 -6.425781 1.128906 -6.976562 1.640625 -7.375 C 2.160156 -7.769531 2.867188 -7.96875 3.765625 -7.96875 C 5.296875 -7.96875 6.335938 -7.363281 6.890625 -6.15625 L 5.875 -5.671875 C 5.6875 -6.109375 5.414062 -6.429688 5.0625 -6.640625 C 4.707031 -6.847656 4.25 -6.953125 3.6875 -6.953125 C 3.113281 -6.953125 2.675781 -6.847656 2.375 -6.640625 C 2.070312 -6.429688 1.921875 -6.132812 1.921875 -5.75 C 1.921875 -5.382812 2.082031 -5.085938 2.40625 -4.859375 C 2.738281 -4.640625 3.296875 -4.5 4.078125 -4.4375 C 5.054688 -4.34375 5.785156 -4.097656 6.265625 -3.703125 C 6.742188 -3.316406 6.984375 -2.804688 6.984375 -2.171875 C 6.984375 -1.660156 6.832031 -1.21875 6.53125 -0.84375 C 6.238281 -0.476562 5.84375 -0.203125 5.34375 -0.015625 C 4.851562 0.171875 4.320312 0.265625 3.75 0.265625 Z M 3.75 0.265625 "/></g></g></g></svg>